<svg width="20" height="20" viewBox="0 0 20 20" fill="none" xmlns="http://www.w3.org/2000/svg">
<g clip-path="url(#clip0_1_13)">
<path d="M8.33492 0H19.3127V2.86613H17.5154C16.7688 2.86613 16.37 3.36871 16.37 3.9573V14.6738C16.37 17.6361 14.2073 18.8498 14.2073 18.8498C14.2073 18.8498 12.7281 19.9876 10.1111 19.9876C7.49418 19.9876 3.92957 20.2729 1.99527 18.111C1.14902 17.1652 0.657656 16.314 0.688672 14.9412C0.716719 13.7 1.18996 12.8023 2.48777 12.1366C4.80086 10.9502 8.34488 12.0164 7.43949 15.038C7.18703 15.8805 6.28176 16.1635 6.24629 16.5053C6.18383 17.107 6.39902 17.6996 6.88297 17.6996C8.41211 17.6996 9.1816 18.0142 9.96895 17.6948C11.4038 17.1127 11.2869 15.3225 11.2869 15.3225V3.7927C11.2869 3.1518 10.68 2.86613 10.2249 2.86613H8.33492V0Z" fill="white"/>
</g>
<defs>
<clipPath id="clip0_1_13">
<rect width="20" height="20" fill="white"/>
</clipPath>
</defs>
</svg>
